PathFileType	4	(X/Y/Z)	4_coords_data.trc
DataRate	CameraRate	NumFrames	NumMarkers	Units	OrigDataRate	OrigDataStartFrame	OrigNumFrames
30.0	30.0	9	21	m	30.0	39	57
Frame#	Time	THUMB_TIP	THUMB_IP	THUMB_MCP	THUMB_CMC	INDEX_TIP	INDEX_DIP	INDEX_PIP	INDEX_MCP	MIDDLE_TIP	MIDDLE_DIP	MIDDLE_PIP	MIDDLE_MCP	RING_TIP	RING_DIP	RING_PIP	RING_MCP	PINKY_TIP	PINKY_DIP	PINKY_PIP	PINKY_MCP	WRIST
X1	Y1	Z1	X2	Y2	Z2	X3	Y3	Z3	X4	Y4	Z4	X5	Y5	Z5	X6	Y6	Z6	X7	Y7	Z7	X8	Y8	Z8	X9	Y9	Z9	X10	Y10	Z10	X11	Y11	Z11	X12	Y12	Z12	X13	Y13	Z13	X14	Y14	Z14	X15	Y15	Z15	X16	Y16	Z16	X17	Y17	Z17	X18	Y18	Z18	X19	Y19	Z19	X20	Y20	Z20	X21	Y21	Z21
38	1.2666666666666666	0.000503889024257659	-0.08079779815673828	1.081780029296875	-0.02345009994506836	-0.07433899688720703	1.0973199462890626	-0.04992689895629883	-0.06783200073242188	1.1145899658203124	-0.06310800170898437	-0.034443099975585936	1.1232900390625	0.005955900192260742	-0.07274379730224609	1.018719970703125	-0.01635420036315918	-0.07043219757080078	1.0205700073242188	-0.04021379852294922	-0.06657869720458984	1.028530029296875	-0.06234389877319336	-0.05589120101928711	1.06197998046875	0.02008009910583496	-0.043434700012207034	1.0079299926757812	-0.0043055500984191895	-0.039497501373291014	1.0093300170898438	-0.03396689987182617	-0.03558620071411133	1.0178800048828125	-0.06112300109863281	-0.030768199920654295	1.052989990234375	0.01806369972229004	-0.012458200454711915	1.0112000122070313	-0.0048651199340820316	-0.008216879844665527	1.0100700073242188	-0.033636199951171876	-0.006046949863433838	1.01675	-0.05632149887084961	-0.007298449993133545	1.05325	0.0028520500659942618	0.01932080078125	1.0296099853515626	-0.014476799964904785	0.025562400817871093	1.02802001953125	-0.03478139877319336	0.026924699783325196	1.03272998046875	-0.050387901306152345	0.015906499862670898	1.058780029296875	-0.09535610198974609	-0.0044706897735595705	1.1368900146484375
39	1.3	-0.001575230002403259	-0.08724729919433594	1.084199951171875	-0.024598899841308593	-0.0762166976928711	1.0988800048828125	-0.05039459991455078	-0.06790370178222656	1.1153699951171876	-0.06363479995727539	-0.034080299377441406	1.124530029296875	0.00559922981262207	-0.07417019653320313	1.01347998046875	-0.016284599304199218	-0.07087100219726562	1.0193400268554687	-0.03887739944458008	-0.06614250183105469	1.03031005859375	-0.06112519836425781	-0.05517589950561524	1.063280029296875	0.01967329978942871	-0.041475399017333985	0.99997998046875	-0.004346630096435547	-0.038115501403808594	1.0069400024414064	-0.03284479904174804	-0.0346598014831543	1.01977001953125	-0.0596328010559082	-0.03022509956359863	1.05422998046875	0.019176000595092772	-0.009428170204162598	1.0046799926757812	-0.0042107000350952144	-0.006219349861145019	1.0087999877929688	-0.032065799713134766	-0.004827439785003662	1.0191400146484375	-0.05468529891967774	-0.006604479789733887	1.0549599609375	0.005440989971160889	0.025314199447631837	1.0275	-0.013021400451660156	0.029141399383544923	1.029199951171875	-0.03288690185546875	0.028556800842285155	1.0356500244140625	-0.048856201171875	0.016347299575805663	1.060739990234375	-0.09613339996337891	-0.003923199892044067	1.1380999755859376
40	1.3333333333333333	-0.003374229907989502	-0.09072080230712891	1.08652001953125	-0.025268999099731446	-0.0770896987915039	1.1000400390625	-0.051587501525878904	-0.06747360229492187	1.1169100341796876	-0.06423329925537109	-0.03348519897460937	1.1256600341796874	0.0048847198486328125	-0.07451349639892578	1.0102899780273438	-0.01627869987487793	-0.07062069702148438	1.0188400268554687	-0.0379099006652832	-0.06542900085449219	1.0315999755859375	-0.060489700317382815	-0.05437810134887695	1.0644200439453124	0.018565200805664064	-0.03937860107421875	0.9948729858398437	-0.0044566202163696285	-0.03666619873046875	1.00602001953125	-0.03178300094604492	-0.03360800170898438	1.0216599731445313	-0.05882500076293945	-0.02955190086364746	1.0553499755859375	0.01904319953918457	-0.006579470157623291	1.0001099853515625	-0.003891050100326538	-0.004381490230560303	1.0079400024414062	-0.03078179931640625	-0.003702229976654052	1.02127001953125	-0.05371839904785156	-0.005917099952697754	1.0563199462890625	0.006534259796142578	0.029965599060058593	1.0260899658203124	-0.01233650016784668	0.031675500869750975	1.0301500244140624	-0.0317416000366211	0.029645700454711914	1.037949951171875	-0.048092098236083985	0.016864099502563477	1.0623699951171874	-0.09676190185546875	-0.0033452999591827392	1.1388399658203125
41	1.3666666666666667	-0.005043079853057861	-0.0929574966430664	1.08806005859375	-0.025628700256347656	-0.07732279968261718	1.100760009765625	-0.05186410140991211	-0.06677510070800781	1.1176300048828125	-0.0646095962524414	-0.03259709930419922	1.126449951171875	0.004396959781646728	-0.07406999969482422	1.008510009765625	-0.01607670021057129	-0.06989540100097656	1.0187999877929688	-0.03705670166015625	-0.06452239990234375	1.0328399658203125	-0.060042098999023436	-0.05356380081176758	1.065550048828125	0.01742919921875	-0.037594100952148435	0.9917639770507812	-0.004560389995574951	-0.0353557014465332	1.0056099853515625	-0.030840999603271486	-0.03262319946289063	1.0231500244140626	-0.05815790176391602	-0.02877669906616211	1.0561300048828124	0.018492500305175782	-0.004430580139160156	0.9968770141601563	-0.0039998099803924565	-0.0029700698852539063	1.0074000244140624	-0.029894399642944335	-0.002837599992752075	1.0226599731445312	-0.0532244987487793	-0.005099140167236328	1.057239990234375	0.006415939807891845	0.033206001281738284	1.0247099609375	-0.012417400360107422	0.03348740005493164	1.0305	-0.03135890007019043	0.03051169967651367	1.0392099609375	-0.04795759963989258	0.017641599655151368	1.0634300537109376	-0.09719450378417968	-0.002460939884185791	1.1392900390625
42	1.4	-0.006558879852294922	-0.09428399658203125	1.0891500244140624	-0.026261100769042967	-0.07703659820556641	1.101469970703125	-0.05210940170288086	-0.06603410339355469	1.117949951171875	-0.06506289672851563	-0.03163450050354004	1.1269599609375	0.004296999931335449	-0.0732270965576172	1.0078099975585937	-0.01582610034942627	-0.06893470001220703	1.0190999755859376	-0.03637030029296875	-0.06351020050048828	1.033699951171875	-0.059809700012207034	-0.052665000915527345	1.0659599609375	0.01674220085144043	-0.03616260147094726	0.9903909912109375	-0.0044378600120544434	-0.034210399627685545	1.0056199951171876	-0.030047599792480468	-0.03171990013122559	1.0242099609375	-0.05793370056152344	-0.02790679931640625	1.0570799560546875	0.017517499923706055	-0.002633260011672973	0.9948109741210938	-0.004220550060272217	-0.0016657999753952022	1.0073400268554686	-0.029401599884033205	-0.001899309992790222	1.0236699829101563	-0.053019001007080076	-0.00426747989654541	1.0579100341796874	0.005907869815826416	0.035661998748779296	1.0233200073242188	-0.012646300315856934	0.03486809921264648	1.0304300537109374	-0.031191600799560546	0.031248600006103515	1.03993994140625	-0.04786209869384766	0.018424999237060546	1.0638800048828125	-0.0975886001586914	-0.0015871399641036981	1.1394200439453126
43	1.4333333333333333	-0.007925399780273438	-0.09512969970703125	1.0895999755859376	-0.026906299591064452	-0.07691329956054688	1.1016800537109375	-0.052593101501464845	-0.06538240051269531	1.1181300048828124	-0.06536409759521485	-0.030786399841308595	1.1270899658203124	0.004230579853057861	-0.07233930206298828	1.007260009765625	-0.0154753999710083	-0.06801080322265625	1.0193099975585938	-0.03574050140380859	-0.06258440017700195	1.0344100341796876	-0.059780200958251956	-0.051853801727294924	1.0659300537109375	0.016516899108886717	-0.03494919967651367	0.989947021484375	-0.004341219902038574	-0.033181800842285156	1.0058200073242187	-0.029569000244140626	-0.03082659912109375	1.024949951171875	-0.057881900787353516	-0.02715800094604492	1.0573399658203124	0.01676759910583496	-0.001236310005187988	0.9933690185546875	-0.0044468498229980466	-0.000611542999744415	1.0070700073242187	-0.029077600479125977	-0.001064170002937317	1.024300048828125	-0.05292409896850586	-0.003493540048599243	1.05831005859375	0.005425849914550781	0.03751800155639649	1.0224000244140625	-0.012918299674987792	0.035947601318359376	1.0304300537109374	-0.031130699157714842	0.03190390014648437	1.0404599609375	-0.0478931999206543	0.019119600296020507	1.0642099609375	-0.09792960357666015	-0.000825993001461029	1.1396099853515624
44	1.4666666666666666	-0.008289819717407226	-0.09488729858398437	1.089989990234375	-0.027036199569702147	-0.0765436019897461	1.1018199462890625	-0.05269720077514648	-0.06491439819335937	1.118260009765625	-0.06557260131835937	-0.03036709976196289	1.1272099609375	0.00396028995513916	-0.07154219818115234	1.0065999755859374	-0.015531999588012695	-0.06724099731445313	1.0192000122070313	-0.035505401611328126	-0.061880199432373044	1.0346600341796874	-0.05994350051879883	-0.051262798309326174	1.06652001953125	0.016031400680541992	-0.033836898803710935	0.9894010009765625	-0.004414770126342773	-0.032308101654052734	1.005969970703125	-0.029342899322509764	-0.030186100006103514	1.0254000244140624	-0.05795299911499024	-0.02659939956665039	1.0573399658203124	0.01571030044555664	5.8859001845121e-05	0.991926025390625	-0.004882390022277832	0.00031824299693107604	1.0067100219726564	-0.028993799209594728	-0.000398268014192581	1.02468994140625	-0.053069698333740235	-0.002901979923248291	1.05856005859375	0.00468871021270752	0.03880530166625976	1.0214099731445312	-0.013387900352478027	0.03665140151977539	1.0300899658203124	-0.03130120086669922	0.03237570190429687	1.0406099853515625	-0.04824269866943359	0.019724599838256834	1.06477001953125	-0.09804090118408203	-0.00037449499964714	1.1395799560546875
45	1.5	-0.007530069828033447	-0.093785400390625	1.0903299560546875	-0.026821699142456055	-0.0760333023071289	1.1021500244140625	-0.05268140029907226	-0.06461849975585937	1.1183900146484376	-0.06564099884033203	-0.030122400283813477	1.1271199951171875	0.00374685001373291	-0.07105719757080078	1.0062899780273438	-0.015593299865722656	-0.066810302734375	1.0191799926757812	-0.03553459930419922	-0.061534400939941405	1.03477001953125	-0.06017430114746094	-0.051012798309326174	1.0661400146484374	0.015243800163269042	-0.03327239990234375	0.988635986328125	-0.004858290195465088	-0.03189570045471191	1.0056699829101563	-0.029527599334716798	-0.029881200790405273	1.0256099853515626	-0.05818249893188476	-0.026315700531005858	1.057280029296875	0.014705900192260743	0.0006461600065231321	0.9908560180664062	-0.005530029773712158	0.0007084990143775941	1.0063800048828124	-0.02924169921875	-0.00014688199758529602	1.02481005859375	-0.053375	-0.0026588399410247803	1.0586099853515625	0.003861380100250244	0.03943840026855469	1.0204299926757812	-0.014047499656677245	0.036928199768066404	1.02968994140625	-0.031708099365234374	0.032505199432373046	1.040530029296875	-0.048436500549316405	0.01994770050048828	1.0644200439453124	-0.09824330139160156	-0.000184185996651649	1.139530029296875
46	1.5333333333333334	-0.006967219829559326	-0.0929760971069336	1.090489990234375	-0.026718500137329102	-0.07567520141601562	1.1023699951171875	-0.05269430160522461	-0.06451460266113282	1.11843994140625	-0.06577149963378906	-0.030092599868774415	1.1271300048828126	0.003570620059967041	-0.07099939727783203	1.006280029296875	-0.015776300430297853	-0.06678450012207031	1.0190999755859376	-0.03575210189819336	-0.0614994010925293	1.03472998046875	-0.06042150115966797	-0.051032100677490234	1.0660999755859375	0.014632100105285645	-0.03327270126342773	0.9881749877929688	-0.005308939933776856	-0.031919500350952146	1.0054000244140624	-0.029859800338745118	-0.02986630058288574	1.0254300537109375	-0.05862530136108399	-0.026336700439453124	1.05747998046875	0.01413070011138916	0.000712592005729675	0.9902860107421875	-0.005962790012359619	0.000733739018440246	1.006	-0.029551700592041017	-0.000144016996026039	1.0246600341796874	-0.05363980102539063	-0.0027193000316619873	1.0583800048828125	0.0033733699321746823	0.039488300323486325	1.0199099731445314	-0.014496600151062012	0.03694079971313476	1.0294200439453125	-0.03208369827270508	0.03249530029296875	1.0403299560546875	-0.0488224983215332	0.019941299438476563	1.064300048828125	-0.09822879791259766	-0.00010045500099658901	1.1391199951171875
